<?xml version="1.0" encoding="UTF-8" standalone="no"?>
<!-- Created with Inkscape (http://www.inkscape.org/) -->

<svg
   xmlns:dc="http://purl.org/dc/elements/1.1/"
   xmlns:cc="http://creativecommons.org/ns#"
   xmlns:rdf="http://www.w3.org/1999/02/22-rdf-syntax-ns#"
   xmlns:svg="http://www.w3.org/2000/svg"
   xmlns="http://www.w3.org/2000/svg"
   xmlns:sodipodi="http://sodipodi.sourceforge.net/DTD/sodipodi-0.dtd"
   xmlns:inkscape="http://www.inkscape.org/namespaces/inkscape"
   width="72"
   height="72"
   id="svg2"
   version="1.1"
   inkscape:version="0.48.0 r9654"
   sodipodi:docname="play.svg"
   inkscape:export-filename="/home/eric/Desktop/play.png"
   inkscape:export-xdpi="90"
   inkscape:export-ydpi="90">
  <defs
     id="defs4">
    <linearGradient
       id="linearGradient3780">
      <stop
         style="stop-color:#224466;stop-opacity:1;"
         offset="0"
         id="stop3782" />
      <stop
         style="stop-color:#224466;stop-opacity:0;"
         offset="1"
         id="stop3784" />
    </linearGradient>
  </defs>
  <sodipodi:namedview
     id="base"
     pagecolor="#ffffff"
     bordercolor="#666666"
     borderopacity="1.0"
     inkscape:pageopacity="0.0"
     inkscape:pageshadow="2"
     inkscape:zoom="5.6"
     inkscape:cx="46.029163"
     inkscape:cy="49.164514"
     inkscape:document-units="px"
     inkscape:current-layer="layer1"
     showgrid="true"
     inkscape:window-width="1226"
     inkscape:window-height="732"
     inkscape:window-x="0"
     inkscape:window-y="24"
     inkscape:window-maximized="0">
    <inkscape:grid
       type="xygrid"
       id="grid2985"
       empspacing="5"
       visible="true"
       enabled="true"
       snapvisiblegridlinesonly="true" />
  </sodipodi:namedview>
  <metadata
     id="metadata7">
    <rdf:RDF>
      <cc:Work
         rdf:about="">
        <dc:format>image/svg+xml</dc:format>
        <dc:type
           rdf:resource="http://purl.org/dc/dcmitype/StillImage" />
        <dc:title></dc:title>
      </cc:Work>
    </rdf:RDF>
  </metadata>
  <g
     inkscape:label="Layer 1"
     inkscape:groupmode="layer"
     id="layer1"
     transform="translate(0,-980.36218)">
    <path
       style="fill:none;stroke:black;stroke-opacity:1;stroke-width:1px;stroke-linejoin:miter;stroke-linecap:butt;fill-rule:evenodd"
       d="m 8,29 c 0.071429,-0.0119 0.2023809,-0.107143 0.2142857,-0.03571 C 8.2261905,29.035714 7.9857985,29.071008 8,29 c 0.2915314,-1.457657 0.176918,-0.13955 0.3928572,-0.571429 0.01331,-0.02662 -0.016509,-0.06452 0,-0.08929 0.046694,-0.07004 0.1409252,-0.10328 0.1785714,-0.178572 0.02662,-0.05324 -0.014437,-0.120825 0,-0.178571 0.016141,-0.06456 0.068241,-0.115437 0.089286,-0.178572 0.00941,-0.02823 -0.016509,-0.06452 0,-0.08929 0.046694,-0.07004 0.1352615,-0.106389 0.1785714,-0.178572 0.1800671,-0.300112 -0.00212,-0.205513 0.1785715,-0.446428 0.050508,-0.06734 0.1409252,-0.10328 0.1785714,-0.178572 0.24233,-0.140298 0.022051,-0.367628 0.089286,-0.535714 0.2105436,-0.526359 0.09931,-0.104322 0.2678572,-0.357143 0.036915,-0.05537 0.055046,-0.121506 0.089286,-0.178571 0.05521,-0.09202 0.1387182,-0.168225 0.1785714,-0.267858 0.022107,-0.05527 -0.018823,-0.122102 0,-0.178571 0.01331,-0.03993 0.067631,-0.05319 0.089286,-0.08929 0.068479,-0.114131 0.1190477,-0.238095 0.1785717,-0.357143 0.02976,-0.05952 0.05952,-0.119047 0.08929,-0.178571 0.02976,-0.05952 0.04223,-0.131514 0.08929,-0.178571 0.04706,-0.04706 0.138642,-0.03605 0.178572,-0.08929 0.05647,-0.07529 0.06646,-0.176552 0.08929,-0.267857 0.0072,-0.02887 -0.02662,-0.07598 0,-0.08929 0.05324,-0.02662 0.125332,0.02662 0.178572,0 0.02662,-0.01331 -0.01651,-0.06452 0,-0.08929 0.09339,-0.140083 0.256127,-0.222456 0.357143,-0.357143 0.03993,-0.05324 0.04223,-0.131513 0.08929,-0.178571 0.04706,-0.04706 0.126605,-0.04771 0.178572,-0.08929 0.0986,-0.07888 0.162795,-0.197815 0.267857,-0.267857 0.07831,-0.05221 0.189548,-0.03708 0.267857,-0.08929 0.591465,-0.591465 0.0092,-0.06563 0.446429,-0.357142 0.267857,-0.178572 -0.178572,0 0.267857,-0.267858 0.0807,-0.04842 0.192565,-0.03282 0.267857,-0.08929 0.05324,-0.03993 0.05237,-0.123199 0.08929,-0.178572 0.02335,-0.03502 0.06403,-0.05561 0.08929,-0.08929 0.06438,-0.08585 0.114187,-0.182011 0.178572,-0.267858 0.101015,-0.134687 0.256127,-0.222455 0.357143,-0.357142 0.104124,-0.138833 0.178571,-0.297619 0.267857,-0.446429 0.119047,-0.178571 0.225381,-0.366307 0.357143,-0.535714 0.08929,-0.08929 0.178571,-0.178572 0.267857,-0.267857 0.02976,-0.08929 0.03282,-0.192565 0.08929,-0.267858 0.03993,-0.05324 0.123199,-0.05237 0.178572,-0.08929 0.03502,-0.02335 0.05952,-0.05952 0.08929,-0.08929 0.02976,-0.02976 0.07046,-0.05164 0.08929,-0.08929 0.01331,-0.02662 -0.02105,-0.06824 0,-0.08929 0.03184,-0.219332 0.189549,-0.03708 0.267857,-0.08929 0.07004,-0.04669 0.10853,-0.131877 0.178572,-0.178572 0.02476,-0.01651 0.06824,0.02104 0.08929,0 0.119047,-0.119047 -0.189404,-0.08568 0.08929,-0.178571 0.05647,-0.01882 0.125332,0.02662 0.178572,0 0.02662,-0.01331 -0.02104,-0.06824 0,-0.08929 0.02105,-0.02105 0.05952,0 0.08929,0 0.05952,0 0.129045,-0.03302 0.178572,0 0.139711,0.09314 0.07521,0.333783 0.08929,0.446429 0.01882,0.150585 0.04568,0.301072 0.08929,0.446428 0.04605,0.153514 0.142533,0.290261 0.178572,0.446429 0.107743,0.466887 0.08929,0.719343 0.08929,1.160714 0,0.386905 0,0.77381 0,1.160715 0,0.833333 0,1.666666 0,2.5 0,0.684523 0,1.369047 0,2.053571 0,0.208333 0.03168,0.419089 0,0.625 -0.02862,0.186042 -0.144899,0.35052 -0.178571,0.535714 0,0.756122 0.04706,0.168912 -0.08929,0.714286 -0.0072,0.02887 0.01651,0.06452 0,0.08929 -0.04669,0.07004 -0.135261,0.106388 -0.178571,0.178571 -0.272238,0.06321 -0.03441,0.247387 -0.08929,0.357143 -0.01882,0.03765 -0.07598,0.04936 -0.08929,0.08929 -0.01882,0.05647 0.01882,0.122102 0,0.178571 -0.04209,0.126269 -0.119047,0.238095 -0.178571,0.357143 -0.02976,0.05952 -0.05505,0.121506 -0.08929,0.178571 -0.05521,0.09202 -0.130581,0.171878 -0.178571,0.267858 -0.0177,0.0354 0.01825,0.249603 0,0.267857 -0.02105,0.02105 -0.06824,-0.02105 -0.08929,0 -0.02104,0.02105 0.02763,0.100339 0,0.08929 C 15.165056,31.155308 15.089286,31.065476 15,31"
       id="path3774" />
    <path
       style="fill:#224466;stroke:#000000;stroke-width:1px;stroke-linecap:butt;stroke-linejoin:miter;stroke-opacity:0;fill-opacity:1;fill-rule:nonzero"
       d="M 10,62 10,10 62,36 z"
       id="path3778"
       inkscape:connector-curvature="0"
       transform="translate(0,980.36218)" />
  </g>
</svg>
